<svg xmlns="http://www.w3.org/2000/svg" width="379" height="231" fill="none" viewBox="0 0 379 231">
	<path stroke="#DEE1E6" d="M487 52.1v.01M193.082 231h123.956m-123.956 0h123.956m-123.956 0v-23.59m0 23.59v-62.973M294.918 52.111v.133M317.038 231l68.126-62.973M193.082 207.41l101.836-94.132M193.082 207.41v-39.383m192.082 0 85.425-78.963C481.911 78.6 486.984 65.304 487 52.235M385.164 168.027V231H487V52.235m0 0v-.125m0 .125v-.125m-192.082 61.168L401.82 14.462A50.658 50.658 0 0 1 436.205 1C466.893 1 486.968 26.085 487 52.11m-192.082 61.168V52.244M193.082 168.027l85.425-78.963c11.32-10.463 16.392-23.754 16.411-36.82M193.082 168.027 124.956 231H1v-23.59L209.738 14.462A50.658 50.658 0 0 1 244.123 1c30.741 0 50.832 25.172 50.795 51.244"/>
</svg>
